<?xml version="1.0" encoding="UTF-8" standalone="no"?>
<svg
   width="128"
   height="64"
   viewBox="0 0 128 64"
   version="1.1"
   id="SVGRoot"
   sodipodi:docname="hook.svg"
   inkscape:version="1.2-dev (3e483ec7f7, 2021-12-19)"
   xmlns:inkscape="http://www.inkscape.org/namespaces/inkscape"
   xmlns:sodipodi="http://sodipodi.sourceforge.net/DTD/sodipodi-0.dtd"
   xmlns="http://www.w3.org/2000/svg"
   xmlns:svg="http://www.w3.org/2000/svg">
  <defs
     id="defs823" />
  <sodipodi:namedview
     id="base"
     pagecolor="#8e8e8e"
     bordercolor="#666666"
     borderopacity="1.0"
     inkscape:pageopacity="0"
     inkscape:pageshadow="2"
     inkscape:zoom="4"
     inkscape:cx="38.5"
     inkscape:cy="65.75"
     inkscape:document-units="px"
     inkscape:current-layer="g970"
     showgrid="true"
     inkscape:window-width="3840"
     inkscape:window-height="2100"
     inkscape:window-x="1920"
     inkscape:window-y="32"
     inkscape:window-maximized="1"
     inkscape:pagecheckerboard="true"
     inkscape:blackoutopacity="0.0"
     inkscape:deskcolor="#aaaaaa"
     inkscape:deskopacity="0">
    <inkscape:grid
       type="xygrid"
       id="grid535"
       spacingx="64"
       spacingy="64"
       originx="-192"
       originy="0" />
  </sodipodi:namedview>
  <g
     inkscape:label="Layer 1"
     inkscape:groupmode="layer"
     id="layer1"
     transform="translate(-192)">
    <g
       id="g976"
       transform="matrix(0.90391899,0,0,0.90391899,-21.892025,52.923194)">
      <g
         id="g970">
        <g
           id="g63365"
           style="stroke:#843636;stroke-opacity:1;fill:none;fill-opacity:1">
          <g
             id="g63355"
             style="stroke:#843636;stroke-opacity:1;fill:none;fill-opacity:1" />
        </g>
        <g
           id="g18152">
          <path
             id="rect2543"
             style="fill:#636365;fill-opacity:1;stroke:#020401;stroke-width:1.32755;stroke-miterlimit:4;stroke-dasharray:none;stop-color:#000000"
             d="m 245.61175,-53.092763 c -4.18988,0 -7.56256,3.372684 -7.56256,7.562556 v 11.181778 c 0,4.189872 3.37268,7.562556 7.56256,7.562556 h 19.27155 c 4.18987,-1e-6 7.56255,-3.372684 7.56255,-7.562556 v -11.181778 c 0,-4.189872 -3.37268,-7.562556 -7.56255,-7.562556 z m 0.87293,6.95323 h 16.84937 c 0.87758,0 1.58382,0.706241 1.58382,1.583816 v 9.301942 c 0,0.877573 -0.70624,1.583815 -1.58382,1.583815 h -16.84937 c -0.87757,0 -1.58381,-0.706242 -1.58381,-1.583815 v -9.301942 c 0,-0.877575 0.70624,-1.583816 1.58381,-1.583816 z" />
          <g
             id="g9296"
             style="stroke-width:1.44261;stroke-miterlimit:4;stroke-dasharray:none">
            <path
               id="path5827"
               style="fill:#848688;fill-opacity:1;stroke:none;stroke-width:1.44261;stroke-linecap:butt;stroke-linejoin:miter;stroke-miterlimit:4;stroke-dasharray:none;stroke-opacity:1"
               d="m 295.64345,-56.344659 -19.50275,16.529586 18.77891,15.712829 48.54512,-15.74308 z m -3.75319,10.276432 7.45236,6.341743 -7.582,5.933365 -5.77131,-5.946329 z" />
            <path
               id="path5495"
               style="fill:#636365;fill-opacity:1;stroke:none;stroke-width:1.44261;stroke-linecap:butt;stroke-linejoin:miter;stroke-miterlimit:4;stroke-dasharray:none;stroke-opacity:1"
               d="m 295.64345,-56.344658 -19.50275,16.529585 18.77891,15.71283 48.54512,-15.74308 z m -0.0259,4.680141 37.1127,11.6593 -36.87502,11.568549 c 0.447,-0.565951 8.01199,-11.734925 8.01199,-11.734925 z m -3.72726,5.596291 7.45236,6.341743 -7.582,5.933365 -5.77131,-5.946329 z" />
            <path
               id="path6316"
               style="fill:none;fill-opacity:1;stroke:#000000;stroke-width:1.44261;stroke-linecap:butt;stroke-linejoin:miter;stroke-miterlimit:4;stroke-dasharray:none;stroke-opacity:1"
               d="m 295.64345,-56.344658 -19.50275,16.529585 18.77891,15.71283 48.54512,-15.74308 z m -3.75316,10.276432 7.45236,6.341743 -7.582,5.933365 -5.77131,-5.946329 z"
               sodipodi:nodetypes="cccccccccc" />
          </g>
          <rect
             style="fill:#636365;fill-opacity:1;stroke:#000000;stroke-width:1.32755;stroke-miterlimit:4;stroke-dasharray:none;stroke-opacity:1;stop-color:#000000"
             id="rect3073"
             width="34.400509"
             height="7.4281187"
             x="257.58398"
             y="-43.422371"
             ry="3.5305231" />
          <path
             id="rect4701"
             style="fill:#636365;fill-opacity:1;stroke:#000000;stroke-width:1.32755;stroke-miterlimit:4;stroke-dasharray:none;stroke-opacity:1;stop-color:#000000"
             d="m 236.62743,-35.994905 h 12.00069 c 1.95591,0 3.53064,-1.574724 3.53064,-3.530634 v -0.367324 c 0,-1.95591 -1.57473,-3.528472 -3.53064,-3.528472 h -12.00069"
             sodipodi:nodetypes="cssssc" />
        </g>
      </g>
    </g>
  </g>
</svg>
