<?xml version="1.0" encoding="UTF-8" standalone="no"?>
<svg
   width="256"
   height="128"
   viewBox="0 0 256 128"
   version="1.1"
   id="SVGRoot"
   sodipodi:docname="laser.svg"
   inkscape:version="1.2-dev (3978b257e3, 2021-12-14)"
   xmlns:inkscape="http://www.inkscape.org/namespaces/inkscape"
   xmlns:sodipodi="http://sodipodi.sourceforge.net/DTD/sodipodi-0.dtd"
   xmlns="http://www.w3.org/2000/svg"
   xmlns:svg="http://www.w3.org/2000/svg">
  <defs
     id="defs823" />
  <sodipodi:namedview
     id="base"
     pagecolor="#8e8e8e"
     bordercolor="#666666"
     borderopacity="1.0"
     inkscape:pageopacity="0"
     inkscape:pageshadow="2"
     inkscape:zoom="5.6568546"
     inkscape:cx="55.861432"
     inkscape:cy="30.228813"
     inkscape:document-units="px"
     inkscape:current-layer="g970"
     showgrid="true"
     inkscape:window-width="3840"
     inkscape:window-height="2100"
     inkscape:window-x="1920"
     inkscape:window-y="32"
     inkscape:window-maximized="1"
     inkscape:pagecheckerboard="true"
     inkscape:blackoutopacity="0.0"
     inkscape:deskcolor="#aaaaaa"
     inkscape:deskopacity="0">
    <inkscape:grid
       type="xygrid"
       id="grid535"
       spacingx="64"
       spacingy="64"
       originx="-192"
       originy="0" />
  </sodipodi:namedview>
  <g
     inkscape:label="Layer 1"
     inkscape:groupmode="layer"
     id="layer1"
     transform="translate(-192)">
    <g
       id="g976"
       transform="matrix(0.90391899,0,0,0.90391899,-21.892025,52.923194)">
      <g
         id="g970">
        <g
           id="g163124">
          <g
             id="g168113">
            <path
               style="fill:#505153;fill-opacity:1;stroke:none;stroke-width:1.21692;stroke-linecap:butt;stroke-linejoin:miter;stroke-miterlimit:4;stroke-dasharray:none;stroke-opacity:1"
               d="m 328.17854,-39.251121 5.54953,-10.989862 h 12.30007 l 2.98053,3.385568 44.46053,3e-6 7.12618,7.604291 h 21.63564 v -4.25809 h 15.75551 l 10e-6,4.25809 13.97406,0.179936 v 4.022534 l 8.75905,-10e-7 9.97645,29.9824564 -7.34923,3.674049 1.34385,3.028777 -14.64339,5.204168 -10e-6,7.3991546 h -19.40349 v 10.511179 l -37.67344,8.71156 -0.10673,-20.091401 -27.00518,3e-6 v -2.270923 h -10.756 V 2.4623384 l -10.30835,-0.156139 c -2.17731,1.550214 -3.62917,6.128745 -5.20471,10.1909996 l -12.34001,5.563882 c 1.13116,4.067556 0.69964,7.378959 -2.58842,9.218212 l -21.67785,0.142629 -3.6571,-2.480209 -25.12815,0.30253 -4.7154,2.072331 h -19.18067 c -7.03043,-8.979109 0.23519,-18.8273566 0.39571,-28.24364557 -0.76299,-9.48990643 -6.05717,-24.20465743 -0.55741,-26.47310543 3.362,-3.161573 26.26658,-1.153176 28.18036,0.439901 10.29344,5.660107 10.71489,27.68242043 7.78971,30.4591774 -1.07562,1.14522 -0.4951,1.625929 -8.28299,3.703993 v 3.8628486 h 17.51671 c 3.81076,-11.78035257 12.79957,-24.176448 22.07103,-29.538203 v -20.77866 z"
               id="path34279"
               sodipodi:nodetypes="ccccccccccccccccccccccccccccccccccccccccccccc" />
            <path
               id="rect83986"
               style="fill:#757678;fill-opacity:1;stroke:none;stroke-width:0.8902;stroke-miterlimit:4;stroke-dasharray:none;stroke-opacity:1;stop-color:#000000"
               d="m 450.04706,-29.681248 v 6.209938 h 14.52443 l -2.06566,-6.209938 z" />
            <path
               style="fill:#373839;fill-opacity:1;stroke:none;stroke-width:1.10629px;stroke-linecap:butt;stroke-linejoin:miter;stroke-opacity:1"
               d="m 392.97039,33.46269 37.67344,-8.711561 V 14.239951 c 0,0 -4.28329,-1.720697 -6.46179,-1.391158 -6.2266,0.941891 -10.17039,9.145739 -16.46678,9.260939 -2.89286,0.05293 -4.83272,-4.213964 -7.7162,-3.975313 -2.93503,0.242918 -7.08203,5.28257 -7.08203,5.28257 z"
               id="path87149"
               sodipodi:nodetypes="cccssscc" />
            <path
               id="path135343"
               style="fill:#a1a3a8;fill-opacity:1;stroke:#000000;stroke-width:2.21259;stroke-linecap:butt;stroke-linejoin:miter;stroke-miterlimit:4;stroke-dasharray:none;stroke-opacity:1"
               d="m 317.41497,-2.1681716 -9.01025,21.0947036 h 19.04684 c -0.0652,-0.28759 -0.12083,-0.57058 -0.20311,-0.86645 l 12.33993,-5.56388 c 1.57554,-4.0622596 3.02789,-8.6397826 5.2052,-10.1900096 l 2.29253,0.03457 v -10.40175 z"
               sodipodi:nodetypes="ccccccccc" />
            <path
               id="rect166068"
               style="opacity:1;fill:#000000;fill-opacity:1;stroke:#000000;stroke-width:0.995664;stop-color:#000000"
               d="m 422.23102,-43.509212 h 15.74866 v 22.744682 h -15.74866 z"
               sodipodi:nodetypes="ccccc" />
            <g
               id="g90553">
              <g
                 id="g32090">
                <g
                   id="g29826"
                   transform="translate(-4.3223372e-7,22.125877)">
                  <path
                     id="path7600"
                     style="fill:#d8d8d7;fill-opacity:1;stroke:none;stroke-width:0.8;stroke-miterlimit:4;stroke-dasharray:none;stroke-opacity:1;stop-color:#000000"
                     d="M 73.025391,-2.5566406 V 35.007812 H 107.0918 v 7.949219 h 9.72265 v 2.052735 h 32.88086 v -4.771485 h 34.20117 V -2.5566406 Z"
                     transform="matrix(1.1062938,0,0,1.1062938,236.62743,-58.548603)" />
                  <path
                     id="rect2752"
                     style="fill:#b2b4b8;fill-opacity:1;stroke:none;stroke-width:2.5;stroke-miterlimit:4;stroke-dasharray:none;stroke-opacity:1;stop-color:#000000"
                     d="m 87.914062,5.7988281 c -0.516045,0.00981 -0.999235,0.097291 -1.445312,0.2773438 -3.598782,1.4526014 -8.538053,6.0347951 -13.443359,9.8691401 v 19.0625 H 107.0918 v 7.949219 h 9.72265 v 2.052735 h 32.88086 v -4.771485 h 34.20117 V 15.466797 c -2.51323,-1.832586 -5.09419,-3.471559 -7.81054,-3.658203 -8.45907,-0.581236 -17.92381,7.525977 -24.58985,6.509765 C 147.39574,17.693275 137.16156,6.7060571 128.48047,5.8945312 120.70659,5.1678165 112.57429,13.209841 106.16211,13.007812 101.05691,12.846964 93.450772,6.1895126 88.441406,5.8144531 88.2625,5.801057 88.086078,5.7955592 87.914062,5.7988281 Z"
                     transform="matrix(1.1062938,0,0,1.1062938,236.62743,-58.548603)" />
                  <rect
                     style="fill:#004adf;fill-opacity:1;stroke:#000000;stroke-width:0.885035;stroke-miterlimit:4;stroke-dasharray:none;stroke-opacity:1;stop-color:#000000"
                     id="rect16021"
                     width="22.515209"
                     height="5.6302977"
                     x="417.55576"
                     y="-30.726479" />
                  <rect
                     style="opacity:1;fill:#a1a3a8;fill-opacity:1;stroke:none;stroke-width:0.885035;stroke-miterlimit:4;stroke-dasharray:none;stroke-opacity:1;stop-color:#000000"
                     id="rect18046"
                     width="62.453274"
                     height="5.6678262"
                     x="355.10248"
                     y="-19.66354" />
                  <rect
                     style="fill:#004adf;fill-opacity:1;stroke:#000000;stroke-width:0.885035;stroke-miterlimit:4;stroke-dasharray:none;stroke-opacity:1;stop-color:#000000"
                     id="rect17197"
                     width="22.515209"
                     height="5.6302977"
                     x="417.55576"
                     y="-19.66354" />
                  <rect
                     style="opacity:1;fill:#a1a3a8;fill-opacity:1;stroke:none;stroke-width:1.10536;stroke-miterlimit:4;stroke-dasharray:none;stroke-opacity:1;stop-color:#000000"
                     id="rect26369"
                     width="36.375893"
                     height="1.7711715"
                     x="365.85852"
                     y="-10.525752" />
                  <path
                     id="path15812"
                     style="fill:none;fill-opacity:1;stroke:#000000;stroke-width:0.885035;stroke-miterlimit:4;stroke-dasharray:none;stroke-opacity:1;stop-color:#000000"
                     d="m 317.41497,-61.376999 v 41.557321 h 37.68745 v 8.794172 h 10.75611 v 2.2709284 h 36.37589 v -5.2786644 h 37.83655 v -47.343757 h -85.32629 z"
                     sodipodi:nodetypes="cccccccccccc" />
                </g>
                <rect
                   style="opacity:1;fill:#505153;fill-opacity:1;stroke:#060606;stroke-width:0.885035;stroke-miterlimit:4;stroke-dasharray:none;stroke-opacity:1;stop-color:#000000"
                   id="rect30820"
                   width="4.042388"
                   height="12.495965"
                   x="424.4458"
                   y="-41.817413" />
                <rect
                   style="opacity:1;fill:#505153;fill-opacity:1;stroke:#060606;stroke-width:0.885035;stroke-miterlimit:4;stroke-dasharray:none;stroke-opacity:1;stop-color:#000000"
                   id="rect31388"
                   width="4.042388"
                   height="12.495965"
                   x="432.00073"
                   y="-41.817413" />
              </g>
              <g
                 id="g83553"
                 transform="translate(-22.125877)">
                <path
                   style="fill:#d8d8d7;fill-opacity:1;stroke:#000000;stroke-width:1.10629px;stroke-linecap:butt;stroke-linejoin:miter;stroke-opacity:1"
                   d="m 486.8166,1.6366284 -14.6434,5.2041687 2e-5,-21.4872161 7.27067,0.05011 z"
                   id="path77635" />
                <path
                   id="path78166"
                   style="fill:#b2b4b8;fill-opacity:1;stroke:none;stroke-width:1.10629px;stroke-linecap:butt;stroke-linejoin:miter;stroke-opacity:1"
                   d="m 480.73375,-11.753672 c -3.19199,2.4885948 -5.99034,5.5141933 -8.56081,8.8503506 V 6.8415715 L 486.8162,1.6363729 Z" />
                <path
                   style="fill:none;fill-opacity:1;stroke:#000000;stroke-width:1.10629px;stroke-linecap:butt;stroke-linejoin:miter;stroke-opacity:1"
                   d="m 486.8166,1.6366284 -14.6434,5.2041687 2e-5,-21.4872161 7.27067,0.05011 z"
                   id="path82608" />
              </g>
              <g
                 id="g75084"
                 transform="translate(0,66.377631)">
                <rect
                   style="opacity:1;fill:#d8d8d7;fill-opacity:0.996582;stroke:#010302;stroke-width:0.885035;stroke-miterlimit:4;stroke-dasharray:none;stroke-opacity:1;stop-color:#000000"
                   id="rect72699"
                   width="9.9763508"
                   height="53.464237"
                   x="440.07098"
                   y="-105.60191" />
                <rect
                   style="opacity:1;fill:#b2b4b8;fill-opacity:0.996078;stroke:none;stroke-width:0.885035;stroke-miterlimit:4;stroke-dasharray:none;stroke-opacity:1;stop-color:#000000"
                   id="rect74457"
                   width="9.9763479"
                   height="13.354658"
                   x="440.07098"
                   y="-65.492332" />
                <rect
                   style="opacity:1;fill:none;fill-opacity:0.996582;stroke:#010302;stroke-width:0.885035;stroke-miterlimit:4;stroke-dasharray:none;stroke-opacity:1;stop-color:#000000"
                   id="rect74875"
                   width="9.9763508"
                   height="53.464237"
                   x="440.07098"
                   y="-105.60191" />
              </g>
            </g>
            <path
               id="path112669"
               style="fill:#404143;fill-opacity:1;stroke:none;stroke-width:2;stroke-linecap:butt;stroke-linejoin:miter;stroke-miterlimit:4;stroke-dasharray:none;stroke-opacity:1"
               d="m 10.640625,39.5625 c 0.709877,4.194517 1.778964,8.802531 2.078125,12.523438 -0.05125,3.00515 -0.902153,6.058755 -1.703125,9.109374 h 26.226563 v -1.761718 c 7.039621,-1.878401 6.514054,-2.312477 7.486328,-3.347656 1.138329,-1.080574 1.71337,-5.386635 1.259765,-10.347657 A 59.814532,15.869829 0 0 1 10.640625,39.5625 Z"
               transform="matrix(1.1062938,0,0,1.1062938,236.62743,-58.548603)" />
            <path
               style="fill:none;fill-opacity:0.461017;stroke:#000000;stroke-width:2.21259;stroke-linecap:butt;stroke-linejoin:miter;stroke-miterlimit:4;stroke-dasharray:none;stroke-opacity:1"
               d="m 328.17854,-39.251122 5.54953,-10.989862 h 12.30007 l 2.98053,3.385568 44.46053,3e-6 7.12618,7.604291 h 21.63564 v -4.25809 h 15.75551 l 10e-6,4.25809 13.97406,0.179936 v 4.022534 l 8.75905,-1e-6 9.97645,29.9824554 -7.34923,3.674049 1.34385,3.028777 -14.64339,5.204169 -10e-6,7.3991546 h -19.40349 v 10.51118 l -37.67344,8.71156 -0.10673,-20.0914 H 365.85848 V 11.10037 h -10.756 V 2.4623364 l -10.30835,-0.156139 c -2.17731,1.550214 -3.62917,6.128745 -5.20471,10.1910046 l -12.34001,5.56388 c 0.44972,4.168578 0.57574,7.397329 -2.58842,9.21821 l -21.67785,0.14263 -3.6571,-2.48021 -25.12815,0.30253 -4.7154,2.07233 h -19.18067 c -7.03043,-8.97911 0.23519,-18.8273566 0.39571,-28.24364557 -0.76299,-9.48990543 -6.05717,-24.20465743 -0.55741,-26.47310543 3.362,-3.161573 26.26658,-1.153176 28.18036,0.439901 10.29344,5.660107 10.71489,27.68242043 7.78971,30.4591774 -1.07562,1.14522 -0.4951,1.625929 -8.28299,3.703993 v 3.8628496 h 17.51671 c 3.81076,-11.78035357 12.79957,-24.176449 22.07103,-29.538204 v -20.778659 z"
               id="path89096"
               sodipodi:nodetypes="ccccccccccccccccccccccccccccccccccccccccccccc" />
            <g
               id="g111835">
              <path
                 id="path107995"
                 style="fill:#2161e3;fill-opacity:1;stroke:none;stroke-width:0.885035;stroke-linecap:butt;stroke-linejoin:miter;stroke-miterlimit:4;stroke-dasharray:none;stroke-opacity:1"
                 d="m 260.03029,-29.069771 c -4.6196,0.02607 -8.62891,0.484656 -9.88966,1.670249 -5.49976,2.268445 -0.20553,16.983368 0.55746,26.47326743 -0.16052,9.41628597 -7.42584,19.26379657 -0.39541,28.24289657 h 19.1808 c 0,0 2.88758,-1.596653 3.77492,-2.916031 3.2108,-5.595893 3.53098,-11.322746 3.55377,-16.9955902 0.13562,-11.3859616 1.64596,-34.1959538 -6.50533,-35.9540058 -3.19496,-0.327946 -6.89893,-0.539844 -10.27655,-0.520786 z"
                 sodipodi:nodetypes="scccccccs" />
              <path
                 id="path96834"
                 style="fill:#004adf;fill-opacity:1;stroke:none;stroke-width:0.8;stroke-linecap:butt;stroke-linejoin:miter;stroke-miterlimit:4;stroke-dasharray:none;stroke-opacity:1"
                 d="m 36.322266,42.027344 c -0.821132,0.457415 -1.565667,0.937324 -2.183594,1.443359 -3.456505,2.830612 -3.600683,10.530756 -8.033203,11.089844 -2.017123,0.254427 -4.359939,-0.60763 -8.488281,-0.339844 -1.707088,0.110731 -3.422192,0.118877 -5.078126,0.06641 -1.010609,7.833811 -5.9868659,15.908838 -0.177734,23.328125 h 17.337891 c 0,0 2.610026,-1.444108 3.412109,-2.636718 2.902303,-5.058234 3.19229,-10.233537 3.212891,-15.361328 0.05548,-4.657484 0.358127,-11.423414 -0.002,-17.589844 z"
                 transform="matrix(1.1062938,0,0,1.1062938,236.62743,-58.548603)" />
              <path
                 id="path110852"
                 style="fill:none;fill-opacity:1;stroke:#000000;stroke-width:0.663776;stroke-linecap:butt;stroke-linejoin:miter;stroke-miterlimit:4;stroke-dasharray:none;stroke-opacity:1"
                 d="m 260.03029,-29.069771 c -4.6196,0.02607 -8.62891,0.484656 -9.88966,1.670249 -5.49976,2.268445 -0.20553,16.983368 0.55746,26.47326743 -0.16052,9.41628597 -7.42584,19.26379657 -0.39541,28.24289657 h 19.1808 c 0,0 2.88758,-1.596653 3.77492,-2.916031 3.2108,-5.595893 3.53098,-11.322746 3.55377,-16.9955902 0.13562,-11.3859616 1.64596,-34.1959538 -6.50533,-35.9540058 -3.19496,-0.327946 -6.89893,-0.539844 -10.27655,-0.520786 z"
                 sodipodi:nodetypes="scccccccs" />
            </g>
            <g
               id="g155369">
              <path
                 id="path150200"
                 style="fill:#004adf;fill-opacity:1;stroke:none;stroke-width:0.995664;stroke-linecap:butt;stroke-linejoin:miter;stroke-miterlimit:4;stroke-dasharray:none;stroke-opacity:1"
                 d="m 299.32533,24.942 3.65812,2.480521 21.67861,-0.142613 c 0.14832,-0.894747 1.37516,-1.207985 1.36116,-2.028214 -0.2182,-12.778384 -2.97765,-16.7653522 16.72519,-25.34600257 V -5.2258426 h -4.42517 c -1.80684,-3.278957 -3.67249,-7.9533194 -8.73541,-8.4996084 -11.74757,-1.267562 -30.66577,21.2892944 -30.2625,38.667451 z"
                 sodipodi:nodetypes="cccscccsc" />
              <path
                 id="path125050"
                 style="fill:#0030df;fill-opacity:1;stroke:none;stroke-width:0.9;stroke-linecap:butt;stroke-linejoin:miter;stroke-miterlimit:4;stroke-dasharray:none;stroke-opacity:1"
                 d="m 95.923828,51.085938 c -2.90187,0.02705 -6.234591,0.268868 -8.332031,1.123046 -5.170796,2.105797 -8.704161,7.018862 -12.730469,10.886719 -3.024657,2.905623 -4.785815,7.386241 -8.554687,9.226563 -2.399083,1.171461 -6.07881,1.666261 -9.619141,1.847656 -0.01561,0.435411 -0.02363,0.869865 -0.01367,1.298828 l 3.306641,2.242188 19.595703,-0.128907 c 0.134069,-0.808779 1.243123,-1.092564 1.230469,-1.833984 C 80.609406,64.197423 78.114057,60.594103 95.923828,52.837891 Z"
                 transform="matrix(1.1062938,0,0,1.1062938,236.62743,-58.548603)" />
              <g
                 id="g150208">
                <circle
                   style="opacity:1;fill:#f2f4d0;fill-opacity:1;stroke:#030604;stroke-width:0.995664;stroke-miterlimit:4;stroke-dasharray:none;stroke-opacity:1;stop-color:#000000"
                   id="circle150202"
                   cx="326.50574"
                   cy="-8.0522709"
                   r="3.1428399" />
                <path
                   id="path150204"
                   style="opacity:1;fill:#c3c4a7;fill-opacity:1;stroke:none;stroke-width:0.9;stroke-miterlimit:4;stroke-dasharray:none;stroke-opacity:1;stop-color:#000000"
                   d="m 82.75,43.238281 a 2.8408727,2.8408727 0 0 1 0.05078,0.523438 2.8408727,2.8408727 0 0 1 -2.841797,2.839843 2.8408727,2.8408727 0 0 1 -1.503906,-0.441406 2.8408727,2.8408727 0 0 0 2.78711,2.326172 2.8408727,2.8408727 0 0 0 2.841796,-2.841797 A 2.8408727,2.8408727 0 0 0 82.75,43.238281 Z"
                   transform="matrix(1.1062938,0,0,1.1062938,236.62743,-58.548603)" />
                <circle
                   style="opacity:1;fill:none;fill-opacity:1;stroke:#030604;stroke-width:0.995664;stroke-miterlimit:4;stroke-dasharray:none;stroke-opacity:1;stop-color:#000000"
                   id="circle150206"
                   cx="326.50574"
                   cy="-8.0522709"
                   r="3.1428399" />
              </g>
              <path
                 id="path154327"
                 style="fill:none;fill-opacity:1;stroke:#000000;stroke-width:0.995664;stroke-linecap:butt;stroke-linejoin:miter;stroke-miterlimit:4;stroke-dasharray:none;stroke-opacity:1"
                 d="m 299.32533,24.942 3.65812,2.480521 21.67861,-0.142613 c 0.14832,-0.894747 1.37516,-1.207985 1.36116,-2.028214 -0.2182,-12.778384 -2.97765,-16.7653522 16.72519,-25.34600257 V -5.2258426 h -4.42517 c -1.80684,-3.278957 -3.67249,-7.9533194 -8.73541,-8.4996084 -11.74757,-1.267562 -30.66577,21.2892944 -30.2625,38.667451 z"
                 sodipodi:nodetypes="cccscccsc" />
            </g>
          </g>
        </g>
      </g>
    </g>
  </g>
</svg>
