<?xml version="1.0" encoding="UTF-8" standalone="no"?>
<svg
   width="128"
   height="64"
   viewBox="0 0 128 64"
   version="1.1"
   id="SVGRoot"
   sodipodi:docname="gun.svg"
   inkscape:version="1.2-dev (3e483ec7f7, 2021-12-19)"
   xmlns:inkscape="http://www.inkscape.org/namespaces/inkscape"
   xmlns:sodipodi="http://sodipodi.sourceforge.net/DTD/sodipodi-0.dtd"
   xmlns="http://www.w3.org/2000/svg"
   xmlns:svg="http://www.w3.org/2000/svg">
  <defs
     id="defs823" />
  <sodipodi:namedview
     id="base"
     pagecolor="#8e8e8e"
     bordercolor="#666666"
     borderopacity="1.0"
     inkscape:pageopacity="0"
     inkscape:pageshadow="2"
     inkscape:zoom="4"
     inkscape:cx="31.5"
     inkscape:cy="30.75"
     inkscape:document-units="px"
     inkscape:current-layer="g970"
     showgrid="true"
     inkscape:window-width="3840"
     inkscape:window-height="2100"
     inkscape:window-x="1920"
     inkscape:window-y="32"
     inkscape:window-maximized="1"
     inkscape:pagecheckerboard="true"
     inkscape:blackoutopacity="0.0"
     inkscape:deskcolor="#aaaaaa"
     inkscape:deskopacity="0">
    <inkscape:grid
       type="xygrid"
       id="grid535"
       spacingx="64"
       spacingy="64"
       originx="-192"
       originy="0" />
  </sodipodi:namedview>
  <g
     inkscape:label="Layer 1"
     inkscape:groupmode="layer"
     id="layer1"
     transform="translate(-192)">
    <g
       id="g976"
       transform="matrix(0.90391899,0,0,0.90391899,-21.892025,52.923194)">
      <g
         id="g970">
        <g
           id="g63365"
           style="stroke:#843636;stroke-opacity:1;fill:none;fill-opacity:1">
          <g
             id="g63355"
             style="stroke:#843636;stroke-opacity:1;fill:none;fill-opacity:1" />
        </g>
        <g
           id="g78891"
           transform="translate(0,-44.251754)">
          <path
             id="path56403"
             style="fill:#000000;fill-opacity:1;stroke:none;stroke-width:0.331888;stroke-linecap:butt;stroke-linejoin:miter;stroke-miterlimit:4;stroke-dasharray:none;stroke-opacity:1"
             d="m 336.50501,-7.6655684 v 3.52415 h -2.01812 l -1.93601,3.13738 h -19.1592 l -3.50686,-3.07904 H 254.9569 l -6.54485,11.207707 4.99128,4.7125524 -10.0301,17.683414 h 9.80323 c -4.19701,4.222364 -8.21123,8.992632 -9.16582,14.617339 -0.0548,0.632958 -0.0559,1.286996 0.0972,1.903604 0.20418,0.822528 0.55259,1.635623 1.07173,2.305499 0.49024,0.63258 1.18714,1.083954 1.85606,1.523315 0.64078,0.420877 1.9303,0.958092 2.04621,1.050115 4.22112,1.777584 8.38998,1.954826 12.59058,1.9533 1.16214,0.0031 2.32398,0.07487 3.48526,0.03025 2.8989,0.01162 5.4919,-1.455634 5.30891,-4.448944 -0.012,-3.732155 1.60658,-6.616932 3.9174,-9.252246 0.34557,-0.497936 0.76378,-1.237425 1.14519,-1.936014 l 17.66829,-0.01512 0.82108,-2.085104 h 37.38711 l 6.91866,-13.301455 h 14.4596 L 363.81445,1.4354266 h -14.5201 l 4.18965,-5.576845 h -4.18965 v -3.52415 z m -63.0609,35.3214534 h 12.77207 l -2.56911,3.385864 h -8.5889 z" />
          <path
             style="fill:#4e4f51;fill-opacity:1;stroke:none;stroke-width:1.10629px;stroke-linecap:butt;stroke-linejoin:miter;stroke-opacity:1"
             d="m 302.27316,18.884164 h 47.96755 l 8.00093,-14.2099944 h -42.97399 l -6.28565,-5.790135 h -52.27014 l -4.38025,7.260489 9.1087,8.9414734 z"
             id="path48175" />
          <path
             id="path65815"
             style="fill:#d9d9d9;fill-opacity:1;stroke:none;stroke-width:0.806488;stroke-miterlimit:4;stroke-dasharray:none;stroke-opacity:1;stop-color:#000000"
             d="m 336.13554,-1.2201114 -5.63431,10.026098 h -6.04858 l 3.36419,-6.455497 -65.16045,-2e-6 -13.92671,24.2529664 h 53.44966 l -3.74582,5.702392 h 31.19739 l 18.62416,-33.5259574 z"
             sodipodi:nodetypes="ccccccccccc" />
          <path
             id="rect1892"
             style="fill:#c0c1c3;fill-opacity:1;stroke:none;stroke-width:0.363971;stroke-miterlimit:4;stroke-dasharray:none;stroke-opacity:1;stop-color:#000000"
             d="m 339.75692,5.2512756 c -0.35177,0.01792 -0.68995,0.06069 -1.00906,0.133965 -4.53409,1.041113 -5.36953,8.6417854 -9.85293,9.8831784 -3.29524,0.912408 -6.52912,-2.551776 -9.94801,-2.504285 -4.05465,0.05632 -7.89659,4.672938 -11.71115,3.297273 C 303.53865,14.728099 304.42048,6.9648806 300.5375,6.3575696 294.09296,5.3496216 288.46385,19.176678 280.218,18.58514 274.13922,18.149065 271.68889,8.1168786 265.61795,7.5827036 c -2.03337,-0.178915 -4.44949,0.515133 -6.88409,1.596779 L 248.72968,26.60361 h 53.44998 l -3.74671,5.702167 h 31.19878 L 344.22747,6.0291386 c -1.57206,-0.50028 -3.12811,-0.846274 -4.47055,-0.777863 z" />
          <path
             style="fill:#c6c8ca;fill-opacity:1;stroke:none;stroke-width:1.10629px;stroke-linecap:butt;stroke-linejoin:miter;stroke-opacity:1"
             d="m 273.2201,34.321463 19.06951,0.05426 4.86064,-11.101155 -2.67515,-0.250319 -4.40255,8.731564 -15.53547,-0.07679 z"
             id="path46407"
             sodipodi:nodetypes="ccccccc" />
          <rect
             style="fill:#cccf5a;fill-opacity:1;stroke:none;stroke-width:0.331888;stroke-miterlimit:4;stroke-dasharray:none;stroke-opacity:1;stop-color:#000000"
             id="rect60951"
             width="6.6145535"
             height="2.2332752"
             x="339.60132"
             y="-4.3332224" />
          <path
             id="path61916"
             style="fill:#9c9ea1;fill-opacity:1;stroke:none;stroke-width:0.363971;stroke-miterlimit:4;stroke-dasharray:none;stroke-opacity:1;stop-color:#000000"
             d="m 335.94323,20.944658 c -27.8085,3.567903 -56.50228,1.784528 -84.92102,1.665922 l -2.29253,3.99303 h 53.44998 l -3.74671,5.702167 h 31.19878 z" />
          <path
             id="path75708"
             style="fill:none;fill-opacity:1;stroke:#000000;stroke-width:0.806488;stroke-miterlimit:4;stroke-dasharray:none;stroke-opacity:1;stop-color:#000000"
             d="m 336.13554,-1.2201114 -5.63431,10.026098 h -6.04858 l 3.36419,-6.455497 -65.16045,-2e-6 -13.92671,24.2529664 h 53.44966 l -3.74582,5.702392 h 31.19739 l 18.62416,-33.5259574 z"
             sodipodi:nodetypes="ccccccccccc" />
          <path
             style="fill:#cccf5a;fill-opacity:1;stroke:none;stroke-width:0.110629;stroke-linecap:butt;stroke-linejoin:miter;stroke-miterlimit:4;stroke-dasharray:none;stroke-opacity:1"
             d="m 262.99372,20.451053 c -0.99595,1.418016 -1.79413,2.966314 -2.75301,4.409658 -2.8319,3.857826 -6.87004,6.669048 -9.72096,10.496139 -0.9741,1.293356 -1.89456,2.63756 -2.6602,4.064249 -0.55194,1.02849 -1.04486,2.100042 -1.38141,3.217703 -0.20275,0.673323 -0.42272,1.374016 -0.37654,2.075685 0.0362,0.54987 0.20309,1.113404 0.50571,1.573931 3.08018,4.854557 15.04597,6.143532 20.92463,3.995177 0.17355,-0.06827 0.32596,-0.201195 0.43379,-0.353359 0.32516,-0.458834 0.45761,-1.036587 0.57185,-1.587229 0.29472,-1.4206 -0.0384,-2.927328 0.27541,-4.343827 0.0898,-0.405345 0.20439,-0.80606 0.33998,-1.200291 2.02836,-4.74861 6.54239,-8.775938 8.39113,-13.046901 0.5951,-1.41514 0.48264,-3.347912 -0.002,-4.54169 -0.67883,-1.672125 -2.98821,-2.117704 -4.58623,-2.227329 -1.65819,-0.113753 -2.0946,-0.421376 -2.81627,-1.772965 -0.31807,-0.679488 -0.35489,-1.489706 -0.76904,-2.115291 -2.25623,-2.592997 -4.88411,-0.948412 -6.37643,1.35634 z"
             id="path29101"
             sodipodi:nodetypes="cccsssccsssccsscccc" />
          <path
             id="path14512"
             style="fill:#b3bd3b;fill-opacity:1;stroke:none;stroke-width:0.110629;stroke-linecap:butt;stroke-linejoin:miter;stroke-miterlimit:4;stroke-dasharray:none;stroke-opacity:1"
             d="m 273.28205,23.012476 c -1.04061,1.920097 -2.26248,4.010241 -3.66891,6.108385 -1.19444,1.781884 -4.49704,-2.586784 -6.28125,-1.395832 -1.79168,1.195936 1.41495,4.543923 -0.36948,6.745799 -1.45425,1.79445 -4.92615,-2.589122 -6.81494,-1.259706 -2.795,1.967241 -5.35783,3.613813 -7.54095,4.926465 -0.26007,0.42158 -0.51358,0.847385 -0.74761,1.283474 -0.55195,1.02849 -1.04416,2.099666 -1.38071,3.217327 -0.20275,0.673323 -0.42215,1.374793 -0.37597,2.076462 0.0362,0.54987 0.20299,1.112484 0.50561,1.573011 3.08018,4.854557 15.04585,6.143545 20.92451,3.99519 0.17355,-0.06827 0.32648,-0.200034 0.43431,-0.352198 0.32516,-0.458835 0.45619,-1.037495 0.57043,-1.588137 0.29472,-1.420601 -0.0372,-2.926569 0.27658,-4.343068 0.0898,-0.405345 0.20364,-0.807134 0.33923,-1.201366 2.02836,-4.748609 6.54354,-8.775526 8.39228,-13.046489 0.5951,-1.41514 0.48247,-3.348076 -0.002,-4.541854 -0.63479,-1.563667 -2.6895,-2.05069 -4.26096,-2.197463 z" />
          <path
             id="path41979"
             style="fill:#a6b034;fill-opacity:1;stroke:none;stroke-width:0.110629;stroke-linecap:butt;stroke-linejoin:miter;stroke-miterlimit:4;stroke-dasharray:none;stroke-opacity:1"
             d="m 277.62944,25.464905 c -4.64251,6.508657 -9.34833,13.015701 -14.67567,19.524358 -6.68069,-0.959414 -11.0728,-3.032057 -15.28933,-5.190074 -0.47116,0.912972 -0.89051,1.857089 -1.18624,2.839199 -0.20275,0.673323 -0.42215,1.374793 -0.37597,2.076462 0.0362,0.54987 0.20299,1.112484 0.50561,1.573011 3.08018,4.854557 15.04585,6.143545 20.92451,3.99519 0.17355,-0.06827 0.32648,-0.200034 0.43431,-0.352198 0.32516,-0.458835 0.45619,-1.037495 0.57043,-1.588137 0.29472,-1.420601 -0.0372,-2.926569 0.27658,-4.343068 0.0898,-0.405345 0.20364,-0.807135 0.33923,-1.201366 2.02836,-4.74861 6.54354,-8.775526 8.39228,-13.046489 0.55554,-1.321083 0.48912,-3.085931 0.0843,-4.286888 z" />
          <circle
             style="fill:#f2f4d0;fill-opacity:1;stroke:#000000;stroke-width:0.449155;stroke-miterlimit:4;stroke-dasharray:none;stroke-opacity:1;stop-color:#000000"
             id="path42944"
             cx="266.79309"
             cy="22.251255"
             r="1.7733854" />
          <path
             id="circle43584"
             style="fill:#000000;fill-opacity:0.198902;stroke:none;stroke-width:0.449155;stroke-miterlimit:4;stroke-dasharray:none;stroke-opacity:1;stop-color:#000000"
             d="m 267.71169,20.735068 a 1.7733853,1.7733853 0 0 1 0.26361,0.931274 1.7733853,1.7733853 0 0 1 -1.77396,1.77396 1.7733853,1.7733853 0 0 1 -0.91183,-0.259288 1.7733853,1.7733853 0 0 0 1.50387,0.842685 1.7733853,1.7733853 0 0 0 1.77396,-1.771799 1.7733853,1.7733853 0 0 0 -0.85565,-1.516832 z" />
          <path
             style="fill:none;fill-opacity:1;stroke:#000000;stroke-width:0.553147;stroke-linecap:butt;stroke-linejoin:miter;stroke-miterlimit:4;stroke-dasharray:none;stroke-opacity:1"
             d="m 262.99372,20.451053 c -0.99595,1.418016 -1.79413,2.966314 -2.75301,4.409658 -2.8319,3.857826 -6.87004,6.669048 -9.72096,10.496139 -0.9741,1.293356 -1.89456,2.63756 -2.6602,4.064249 -0.55194,1.02849 -1.04486,2.100042 -1.38141,3.217703 -0.20275,0.673323 -0.42272,1.374016 -0.37654,2.075685 0.0362,0.54987 0.20309,1.113404 0.50571,1.573931 3.08018,4.854557 15.04597,6.143532 20.92463,3.995177 0.17355,-0.06827 0.32596,-0.201195 0.43379,-0.353359 0.32516,-0.458834 0.45761,-1.036587 0.57185,-1.587229 0.29472,-1.4206 -0.0384,-2.927328 0.27541,-4.343827 0.0898,-0.405345 0.20439,-0.80606 0.33998,-1.200291 2.02836,-4.74861 6.54239,-8.775938 8.39113,-13.046901 0.5951,-1.41514 0.48264,-3.347912 -0.002,-4.54169 -0.67883,-1.672125 -2.98821,-2.117704 -4.58623,-2.227329 -1.65819,-0.113753 -2.0946,-0.421376 -2.81627,-1.772965 -0.31807,-0.679488 -0.35489,-1.489706 -0.76904,-2.115291 -2.25623,-2.592997 -4.88411,-0.948412 -6.37643,1.35634 z"
             id="path78151"
             sodipodi:nodetypes="cccsssccsssccsscccc" />
        </g>
      </g>
    </g>
  </g>
</svg>
