<?xml version="1.0" encoding="UTF-8" standalone="no"?>
<svg
   width="256"
   height="64"
   viewBox="0 0 256 64"
   version="1.1"
   id="SVGRoot"
   sodipodi:docname="shotgun.svg"
   inkscape:version="1.2-dev (3e483ec7f7, 2021-12-19)"
   xmlns:inkscape="http://www.inkscape.org/namespaces/inkscape"
   xmlns:sodipodi="http://sodipodi.sourceforge.net/DTD/sodipodi-0.dtd"
   xmlns="http://www.w3.org/2000/svg"
   xmlns:svg="http://www.w3.org/2000/svg">
  <defs
     id="defs823" />
  <sodipodi:namedview
     id="base"
     pagecolor="#8e8e8e"
     bordercolor="#666666"
     borderopacity="1.0"
     inkscape:pageopacity="0"
     inkscape:pageshadow="2"
     inkscape:zoom="8"
     inkscape:cx="154.125"
     inkscape:cy="22.25"
     inkscape:document-units="px"
     inkscape:current-layer="g970"
     showgrid="true"
     inkscape:window-width="3840"
     inkscape:window-height="2100"
     inkscape:window-x="1920"
     inkscape:window-y="32"
     inkscape:window-maximized="1"
     inkscape:pagecheckerboard="true"
     inkscape:blackoutopacity="0.0"
     inkscape:deskcolor="#aaaaaa"
     inkscape:deskopacity="0">
    <inkscape:grid
       type="xygrid"
       id="grid535"
       spacingx="64"
       spacingy="64"
       originx="-192"
       originy="0" />
  </sodipodi:namedview>
  <g
     inkscape:label="Layer 1"
     inkscape:groupmode="layer"
     id="layer1"
     transform="translate(-192)">
    <g
       id="g976"
       transform="matrix(0.90391899,0,0,0.90391899,-21.892025,52.923194)">
      <g
         id="g970">
        <g
           id="g63323">
          <path
             style="fill:#616264;fill-opacity:1;stroke:#000000;stroke-width:1.10629;stroke-linecap:butt;stroke-linejoin:miter;stroke-miterlimit:4;stroke-dasharray:none;stroke-opacity:1"
             d="m 293.92201,-25.499394 c 2.16076,4.657124 4.17297,9.822831 7.07934,11.927265 13.83782,-1.064217 27.67572,-5.714507 39.30717,-11.917245 z"
             id="path32631"
             sodipodi:nodetypes="cccc" />
          <g
             id="g32462">
            <path
               style="fill:#75571a;fill-opacity:1;stroke:none;stroke-width:1.10629px;stroke-linecap:butt;stroke-linejoin:miter;stroke-opacity:1"
               d="m 362.06002,-15.553443 c 0,0 -48.95204,17.9444076 -74.59519,21.2214176 -7.6195,0.973716 -15.71556,1.790943 -23.03831,-0.528999 -4.91414,-1.556864 -9.46005,-4.72415703 -12.84447,-8.612383 -4.28435,-4.922117 -6.50372,-11.4134956 -8.55629,-17.6078326 -1.71692,-5.181399 -3.83542,-10.685715 -3.05433,-16.087989 0.17825,-1.23286 1.06614,-2.25632 1.70841,-3.32365 1.15277,-1.91567 2.10143,-4.09083 3.83482,-5.50292 0.66503,-0.54177 2.36511,-1.01403 2.36511,-1.01403 l 34.54314,0.0826 c 4.68726,0.36277 13.53989,9.12064 14.81671,12.65592 0.54652,1.513208 0.48099,2.098406 -0.58905,3.299854 -2.42903,2.72732 -6.64924,3.17301 -9.50544,5.449098 -1.30132,1.037013 -2.48456,2.269175 -3.38672,3.667363 -1.02211,1.584082 -2.14162,4.742807 -2.20451,5.208291 -0.0629,0.465487 0.61818,6.142489 2.2846,8.5937976 0.8983,1.321399 2.34144,2.336414 3.8547,2.849312 1.56399,0.530093 3.34352,0.452091 4.95344,0.08436 12.96914,-2.962396 27.60225,-5.8803786 41.6703,-10.3094756 1.29043,-0.40627 2.32735,-1.604294 2.91709,-2.821854 1.01353,-2.09248 -1.02892,-5.382556 0.69727,-6.940113 5.56523,-5.021569 21.90912,0.460619 21.90912,0.460619 z"
               id="path24037"
               sodipodi:nodetypes="csssssssccssssssssssscc" />
            <path
               id="path27676"
               style="fill:#553d06;fill-opacity:1;stroke:none;stroke-width:0.999997px;stroke-linecap:butt;stroke-linejoin:miter;stroke-opacity:1"
               d="m 39.214844,19.310547 c -0.207154,0.001 -0.418693,0.01312 -0.632813,0.03711 -4.762342,0.533616 -4.843106,9.558926 -9.466797,10.81836 -3.978445,1.083678 -8.672632,-5.41135 -11.207031,-3.914063 -4.311702,2.547299 -1.236482,11.904645 -5.222656,15.732422 -0.768334,0.737801 -1.817331,1.364322 -3.0097658,1.90625 1.0590758,2.116953 2.2984008,4.119432 3.8417968,5.892578 3.059242,3.514641 7.169344,6.377877 11.611328,7.785156 6.619173,2.09704 13.936808,1.358676 20.824219,0.478516 23.17933,-2.962152 67.427735,-19.183594 67.427735,-19.183594 L 111.375,30.568359 c 0,0 -14.77417,-4.955107 -19.804688,-0.416015 -1.560335,1.407905 0.28529,4.382005 -0.630859,6.273437 -0.533077,1.100576 -1.470274,2.183546 -2.636719,2.550781 -12.716377,4.003545 -25.942963,6.640594 -37.666015,9.31836 -1.455238,0.332399 -3.062842,0.402989 -4.476563,-0.07617 -1.367864,-0.463618 -2.672384,-1.379781 -3.484375,-2.574219 -1.506308,-2.215784 -2.123263,-7.348768 -2.066406,-7.769531 0.05685,-0.42076 1.070236,-3.275149 1.994141,-4.707031 0.815479,-1.263849 1.884259,-2.377078 3.060546,-3.314453 1.187484,-0.946298 2.638673,-1.538557 4.070313,-2.146485 -3.366633,-3.629821 -6.21471,-8.418069 -10.519531,-8.396484 z"
               transform="matrix(1.1062938,0,0,1.1062938,236.62743,-58.548603)" />
            <path
               id="path20894"
               style="fill:#f78c25;fill-opacity:1;stroke:#000000;stroke-width:0.999997px;stroke-linecap:butt;stroke-linejoin:miter;stroke-opacity:1"
               d="m 8.5136719,11.060547 c -0.1798083,0.09169 -0.35767,0.187072 -0.4804688,0.287109 -1.5668441,1.276422 -2.4247862,3.241044 -3.4667969,4.972656 -0.58056,0.964777 -1.3818451,1.891462 -1.5429687,3.00586 -0.7060421,4.883222 1.207809,9.857451 2.7597656,14.541016 1.855357,5.599178 3.8616697,11.46682 7.7343749,15.916015 3.059242,3.514642 7.169344,6.377878 11.611328,7.785156 3.792688,1.201573 7.814374,1.45829 11.853516,1.304688 C 22.002725,52.355463 7.4335938,35.57016 7.4335938,20.154297 c 0,-3.143137 0.3782576,-6.191004 1.0800781,-9.09375 z"
               transform="matrix(1.1062938,0,0,1.1062938,236.62743,-58.548603)" />
            <path
               style="fill:none;fill-opacity:1;stroke:#000000;stroke-width:1.10629px;stroke-linecap:butt;stroke-linejoin:miter;stroke-opacity:1"
               d="m 362.06002,-15.553443 c 0,0 -48.95204,17.9444076 -74.59519,21.2214176 -7.6195,0.973716 -15.71556,1.790943 -23.03831,-0.528999 -4.91414,-1.556864 -9.46005,-4.72415703 -12.84447,-8.612383 -4.28435,-4.922117 -6.50372,-11.4134956 -8.55629,-17.6078326 -1.71692,-5.181399 -3.83542,-10.685715 -3.05433,-16.087989 0.17825,-1.23286 1.06614,-2.25632 1.70841,-3.32365 1.15277,-1.91567 2.10143,-4.09083 3.83482,-5.50292 0.66503,-0.54177 2.36511,-1.01403 2.36511,-1.01403 l 34.54314,0.0826 c 4.68726,0.36277 13.53989,9.12064 14.81671,12.65592 0.54652,1.513208 0.48099,2.098406 -0.58905,3.299854 -2.42903,2.72732 -6.64924,3.17301 -9.50544,5.449098 -1.30132,1.037013 -2.48456,2.269175 -3.38672,3.667363 -1.02211,1.584082 -2.14162,4.742807 -2.20451,5.208291 -0.0629,0.465487 0.61818,6.142489 2.2846,8.5937976 0.8983,1.321399 2.34144,2.336414 3.8547,2.849312 1.56399,0.530093 3.34352,0.452091 4.95344,0.08436 12.96914,-2.962396 27.60225,-5.8803786 41.6703,-10.3094756 1.29043,-0.40627 2.32735,-1.604294 2.91709,-2.821854 1.01353,-2.09248 -1.02892,-5.382556 0.69727,-6.940113 5.56523,-5.021569 21.90912,0.460619 21.90912,0.460619 z"
               id="path31203"
               sodipodi:nodetypes="csssssssccssssssssssscc" />
          </g>
          <g
             id="g20816">
            <path
               style="fill:#8a6623;fill-opacity:1;stroke:#010301;stroke-width:0.885035;stroke-linecap:butt;stroke-linejoin:miter;stroke-miterlimit:4;stroke-dasharray:none;stroke-opacity:1"
               d="m 417.92987,-28.777891 h -59.57205 c -2.87947,0.02138 -4.8382,2.859913 -5.08188,6.391265 -0.33037,4.787581 -0.62156,9.055663 0.004,11.560631 0.58179,2.3297826 2.81562,4.7492456 5.11419,5.4441856 7.21241,2.18057 16.1814,-1.357253 23.64189,-1.473172 11.54812,-0.179432 22.75449,-0.250679 33.34367,-0.183391 1.69856,0.01079 3.30759,0.829164 4.99582,1.016508 2.01406,0.223502 3.2446,-0.262289 5.26974,-0.190331 2.40181,0.08534 5.72819,1.473675 8.12952,1.375784 4.00012,-0.163067 8.90458,-0.545351 11.21912,-3.811921 0.83223,-1.174546 0.28998,-4.0253706 0.0363,-5.4423436 -0.24979,-1.395343 -1.25551,-2.854463 -2.40615,-2.828752 -2.88343,-0.002 -8.07611,-0.01026 -15.28123,0.07895 -1.92618,-4.080077 -6.08765,-12.056962 -9.41293,-11.937413 z"
               id="path19090"
               sodipodi:nodetypes="ccssssssssssccc" />
            <path
               id="path11178"
               style="fill:#745519;fill-opacity:1;stroke:none;stroke-width:0.3;stroke-linecap:butt;stroke-linejoin:miter;stroke-miterlimit:4;stroke-dasharray:none;stroke-opacity:1"
               d="m 137.64648,40.363281 c -8.55029,0.176304 -16.91584,4.497184 -25.4121,3.521485 -2.13784,-0.245507 -4.51327,-0.485623 -6.82227,-0.921875 0.0124,0.05513 0.0199,0.120455 0.0332,0.173828 0.52589,2.105934 2.54338,4.293706 4.6211,4.921875 6.51943,1.971058 14.62741,-1.22725 21.37109,-1.332032 10.43856,-0.162191 20.56886,-0.226838 30.14062,-0.166015 1.53537,0.0098 2.98961,0.750578 4.51563,0.919922 1.82055,0.202027 2.93311,-0.236919 4.76367,-0.171875 2.17104,0.07714 5.17705,1.330673 7.34766,1.242187 3.61578,-0.147399 8.04847,-0.492598 10.14062,-3.445312 0.57401,-0.810104 0.42559,-2.494758 0.22071,-3.820313 -4.36379,1.491659 -9.36919,2.065558 -13.73438,2.677735 -12.33207,1.72946 -24.73544,-3.856326 -37.18555,-3.59961 z"
               transform="matrix(1.1062938,0,0,1.1062938,236.62743,-58.548603)" />
            <path
               style="fill:none;fill-opacity:1;stroke:#010301;stroke-width:0.885035;stroke-linecap:butt;stroke-linejoin:miter;stroke-miterlimit:4;stroke-dasharray:none;stroke-opacity:1"
               d="m 417.92987,-28.777891 h -59.57205 c -2.87947,0.02138 -4.8382,2.859913 -5.08188,6.391265 -0.33037,4.787581 -0.62156,9.055663 0.004,11.560631 0.58179,2.3297826 2.81562,4.7492456 5.11419,5.4441856 7.21241,2.18057 16.1814,-1.357253 23.64189,-1.473172 11.54812,-0.179432 22.75449,-0.250679 33.34367,-0.183391 1.69856,0.01079 3.30759,0.829164 4.99582,1.016508 2.01406,0.223502 3.2446,-0.262289 5.26974,-0.190331 2.40181,0.08534 5.72819,1.473675 8.12952,1.375784 4.00012,-0.163067 8.90458,-0.545351 11.21912,-3.811921 0.83223,-1.174546 0.28998,-4.0253706 0.0363,-5.4423436 -0.24979,-1.395343 -1.25551,-2.854463 -2.40615,-2.828752 -2.88343,-0.002 -8.07611,-0.01026 -15.28123,0.07895 -1.92618,-4.080077 -6.08765,-12.056962 -9.41293,-11.937413 z"
               id="path20757"
               sodipodi:nodetypes="ccssssssssssccc" />
          </g>
          <g
             id="g63301">
            <path
               id="rect47060"
               style="fill:#4e4f51;fill-opacity:1;stroke:none;stroke-width:0.7;stroke-miterlimit:4;stroke-dasharray:none;stroke-opacity:1;stop-color:#000000"
               d="M 132.2168 5.1777344 L 129.16016 8.2050781 L 127.81836 8.2050781 L 127.81836 9.8574219 L 72.695312 9.8574219 L 72.695312 8.2050781 L 70.390625 8.2050781 L 70.390625 22.974609 L 141.80078 22.974609 L 141.80078 19.917969 L 158.69141 19.917969 L 171.41016 19.917969 L 175.33203 19.917969 L 175.33203 24.919922 L 196.30273 24.919922 L 196.30273 30.130859 L 215.57227 30.130859 L 215.57227 14.431641 L 201.01953 14.431641 L 201.01953 9.9648438 L 186.45508 9.9648438 L 186.45508 15.126953 L 179.41602 15.126953 L 179.41602 9.9648438 L 173.91016 9.9648438 L 171.41016 6.7597656 L 158.69141 6.7597656 L 158.69141 9.9648438 L 141.80078 9.9648438 L 141.80078 8.2050781 L 141.80078 5.1777344 L 132.2168 5.1777344 z "
               transform="matrix(1.1062938,0,0,1.1062938,236.62743,-58.548603)" />
            <g
               id="g62369">
              <path
                 id="path61420"
                 style="fill:#696a6c;fill-opacity:1;stroke:none;stroke-width:0.774406;stop-color:#000000"
                 d="m 457.40808,-25.215023 h 17.70023 c 9.56364,13.415535 0.005,3e-6 9.56364,13.415535 h -27.26387 z"
                 sodipodi:nodetypes="ccccc" />
              <path
                 id="rect58100"
                 style="fill:#4e4f51;fill-opacity:1;stroke:none;stroke-width:0.7;stop-color:#000000"
                 d="m 199.56836,36 v 6.257812 h 24.64453 C 219.75426,36.000139 219.75716,36.006433 219.75195,36 Z"
                 transform="matrix(1.1062938,0,0,1.1062938,236.62743,-58.548603)" />
            </g>
            <rect
               style="fill:#48484a;fill-opacity:1;stroke:none;stroke-width:0.827728;stroke-miterlimit:4;stroke-dasharray:none;stroke-opacity:1;stop-color:#000000"
               id="rect62974"
               width="17.744778"
               height="6.5427628"
               x="457.36893"
               y="-31.757784" />
          </g>
          <g
             id="g47006">
            <path
               id="path39833"
               style="fill:#d9d9d9;fill-opacity:1;stroke:none;stroke-width:1.93159;stroke-miterlimit:4;stroke-dasharray:none;stop-color:#000000"
               d="m 299.0574,-53.202959 v 10.46442 c -3.46464,3.96387 -10.05885,10.446786 -14.07283,15.373593 l 5.33916,4.978322 h 78.05638 v 10.89008 h 89.48232 v -32.886315 h -13.66878 v 8.06169 h -10.58111 v -8.06169 H 322.34791 l -6.43681,-8.8201 z" />
            <path
               id="rect3264"
               style="fill:#c0c1c3;fill-opacity:1;stroke:none;stroke-width:1.746;stroke-miterlimit:4;stroke-dasharray:none;stop-color:#000000"
               d="m 122.55859,14.865234 c -7.39272,-0.651367 -13.92758,9.660564 -21.76171,9.652344 -7.503093,-0.0079 -13.360053,-8.621906 -20.861333,-8.457031 -8.169309,0.179558 -18.485664,1.534242 -27.917969,2.994141 -2.847737,3.002268 -6.019674,6.325762 -8.30664,9.132812 l 4.826171,4.5 h 70.556641 v 9.84375 h 80.88477 v -23.875 c -2.24757,-0.175148 -4.51376,-0.292791 -6.19922,-0.142578 -3.41555,0.304404 -6.54577,2.342407 -9.96875,2.546875 -4.16213,0.24862 -8.24134,-1.926572 -12.40039,-1.630859 -4.97368,0.353632 -9.44907,4.566749 -14.40625,4.029296 -5.31424,-0.576164 -8.81585,-7.635822 -14.16016,-7.529296 -4.97956,0.09926 -8.03426,8.587593 -12.90234,7.535156 -3.32066,-0.717897 -2.6329,-7.359024 -5.89258,-8.316406 -0.50111,-0.147178 -0.99739,-0.239779 -1.49024,-0.283204 z"
               transform="matrix(1.1062938,0,0,1.1062938,236.62743,-58.548603)" />
            <path
               id="path46893"
               style="fill:none;fill-opacity:1;stroke:#000000;stroke-width:1.93159;stroke-miterlimit:4;stroke-dasharray:none;stroke-opacity:1;stop-color:#000000"
               d="m 299.0574,-53.202959 v 10.46442 c -3.46464,3.96387 -10.05885,10.446786 -14.07283,15.373593 l 5.33916,4.978322 h 78.05638 v 10.89008 h 89.48232 v -32.886315 h -13.66878 v 8.06169 h -10.58111 v -8.06169 H 322.34791 l -6.43681,-8.8201 z" />
          </g>
        </g>
        <g
           id="g63365"
           style="stroke:#843636;stroke-opacity:1;fill:none;fill-opacity:1">
          <g
             id="g63355"
             style="stroke:#843636;stroke-opacity:1;fill:none;fill-opacity:1" />
        </g>
        <path
           id="path63529"
           style="fill:none;fill-opacity:1;stroke:#040404;stroke-width:2.65511;stroke-linecap:butt;stroke-linejoin:miter;stroke-miterlimit:4;stroke-dasharray:none;stroke-opacity:1"
           d="m 299.0574,-53.202956 v 10.464416 c -1.15333,1.319522 -2.69811,2.961297 -4.33442,4.688784 -3.29757,-3.908258 -8.88913,-8.614376 -12.30104,-8.87844 l -34.54143,-0.08211 c 0,0 -1.05961,0.302788 -1.83446,0.697915 l -0.002,0.0022 h -0.002 c -0.19742,0.10075 -0.39237,0.205609 -0.52722,0.315466 -0.21667,0.176511 -0.42172,0.365591 -0.61581,0.563951 -0.19366,0.198013 -0.37813,0.404335 -0.55314,0.62013 v 0.0022 c -0.008,0.01033 -0.0154,0.02205 -0.0238,0.03241 -0.002,0.0028 -0.004,0.0059 -0.006,0.0086 -1.03553,1.289321 -1.7803,2.851765 -2.63609,4.273923 -0.32114,0.533665 -0.70397,1.057714 -1.02851,1.601102 -0.32418,0.543818 -0.58934,1.107837 -0.67847,1.724263 -0.19165,1.325486 -0.20583,2.657336 -0.0972,3.988708 0.004,0.05116 0.008,0.102246 0.013,0.153411 4.5e-4,0.005 0.002,0.01008 0.002,0.01512 0.0579,0.647276 0.14201,1.293984 0.25281,1.940336 0.58086,3.386903 1.80934,6.75068 2.88241,9.989056 0.51314,1.548583 1.03743,3.114948 1.6011,4.671498 v 0.0022 c 0.56365,1.556553 1.16747,3.100476 1.84094,4.606676 0.33676,0.753099 0.68991,1.495978 1.06524,2.2255524 0.009,0.01812 0.0187,0.03592 0.0281,0.05402 0.74344,1.439754 1.57091,2.826356 2.50861,4.131316 0.0105,0.01465 0.0219,0.02858 0.0324,0.04322 0.46546,0.645136 0.95641,1.2717 1.4801,1.873352 0.42306,0.486028 0.86454,0.959991 1.32237,1.42176 v 0.0022 c 1.8312,1.84704803 3.92728,3.485664 6.19049,4.805464 h 0.002 c 1.1311,0.659502 2.30287,1.240267 3.50471,1.726423 h 0.002 c 0.0121,0.0049 0.0247,0.0081 0.0367,0.01297 0.015,0.0061 0.0303,0.01125 0.0454,0.01729 0.57477,0.230228 1.15495,0.44077 1.74154,0.626611 0.83045,0.263098 1.67309,0.475397 2.52158,0.661184 0.14415,0.03172 0.28752,0.0654 0.43214,0.09507 0.005,0.001 0.01,0.0033 0.0151,0.0043 0.74804,0.152154 1.50128,0.273454 2.26012,0.373807 0.28681,0.03842 0.57402,0.07423 0.86213,0.105875 0.6691,0.07233 1.34104,0.131971 2.01596,0.170698 0.005,2.97e-4 0.0101,-2.95e-4 0.0151,0 0.41464,0.02433 0.83042,0.03684 1.24674,0.0497 0.3187,0.0094 0.63771,0.01407 0.9572,0.01729 0.92683,0.01042 1.8546,7.85e-4 2.78518,-0.03457 0.40637,-0.01544 0.81216,-0.01827 1.21865,-0.04105 2.92544,-0.163947 5.85043,-0.507792 8.70775,-0.872936 18.87628,-2.412253 50.25572,-12.733723 65.56952,-18.0334524 0.0583,0.559551 0.13343,1.086409 0.24631,1.53844 0.58179,2.3297814 2.81373,4.7500984 5.1123,5.4450394 6.76163,2.044284 15.06839,-0.936912 22.22742,-1.413118 0.47728,-0.03175 0.949,-0.05326 1.41528,-0.0605 11.54812,-0.179431 22.7552,-0.250949 33.34438,-0.183661 1.69857,0.01079 3.30739,0.83036 4.99562,1.017704 2.01406,0.223501 3.24488,-0.262102 5.27001,-0.190144 2.40181,0.08534 5.72734,1.472115 8.12868,1.374223 4.00011,-0.163066 8.90397,-0.544958 11.2185,-3.811527 0.44579,-0.629149 0.48926,-1.7347644 0.40189,-2.8478414 h 12.46743 v -0.302503 h 26.81033 c -4.93254,-6.922824 -4.92935,-6.915862 -4.93511,-6.922979 -0.005,-0.0067 2.3e-4,-2.86e-4 -4.62828,-6.492994 h 0.004 v -6.54269 -10.825258 h -16.09961 l 4e-5,-3.657906 h -16.11256 l -4e-5,4.427126 h -7.78727 l 4e-5,-4.427126 h -5.38612 l -3.47075,-4.829442 h -14.07068 l 0,4.829442 h -18.686 v -3.230502 -3.349131 h -10.60269 l -4.86566,5.177654 -58.03083,0.04474 -4.09047,-5.604841 z m -12.00717,27.76322 3.2735,3.053112 h 5.01722 c 1.67305,3.670486 3.39519,7.172916 5.66111,8.813618 11.41376,-0.877791 22.82301,-4.197552 32.99867,-8.813618 h 3.26702 c 0.14956,1.411948 0.53482,2.960106 -0.0346,4.135637 -0.58974,1.217561 -1.62655,2.415644 -2.91698,2.821913 -14.06805,4.429097 -28.70054,7.3464474 -41.66968,10.3088434 -1.60992,0.367731 -3.3884,0.445824 -4.9524,-0.08427 -1.51326,-0.512898 -2.95644,-1.526444 -3.85474,-2.847843 -1.66642,-2.4513074 -2.34895,-8.1298954 -2.28605,-8.5953834 0.0629,-0.465484 1.184,-3.623277 2.20611,-5.207359 0.8795,-1.363077 2.02803,-2.564144 3.29079,-3.584652 z"
           sodipodi:nodetypes="ccccccccscccccccsccccscccccccsccccccscscccccscccssscssscsssssccccccccccccccccccccccccccccccccccsssssscc" />
      </g>
    </g>
  </g>
</svg>
